<?xml version="1.0"?>
<svg xmlns="http://www.w3.org/2000/svg" id="Solid" viewBox="0 0 512 512" width="512" height="512"><path d="M256,32A224,224,0,0,0,97.608,414.392,224,224,0,0,0,414.392,97.608,222.533,222.533,0,0,0,256,32Zm0,32a8,8,0,1,1-8,8A8,8,0,0,1,256,64ZM72,264a8,8,0,1,1,8-8A8,8,0,0,1,72,264Zm10.653-38.618a8,8,0,1,1-15.76-2.764A192.259,192.259,0,0,1,222.618,66.893a8,8,0,1,1,2.764,15.76A176.212,176.212,0,0,0,82.653,225.382ZM184,304a45.942,45.942,0,0,1,6.851-24H176a8,8,0,0,1,0-16h29.512c.147-.112.285-.23.433-.341C219.409,253.561,237.186,248,256,248H176a8,8,0,0,1,0-16H300.769C307.817,225.31,312,217,312,208c0-22.056-25.122-40-56-40s-56,17.944-56,40a8,8,0,0,1-16,0c0-15.4,7.793-29.728,21.945-40.341C219.409,157.561,237.186,152,256,152s36.591,5.561,50.055,15.659C320.207,178.272,328,192.6,328,208a45.942,45.942,0,0,1-6.851,24H336a8,8,0,0,1,0,16H306.488c-.147.112-.285.23-.433.341C292.591,258.439,274.814,264,256,264h80a8,8,0,0,1,0,16H211.231C204.183,286.69,200,295,200,304c0,22.056,25.122,40,56,40s56-17.944,56-40a8,8,0,0,1,16,0c0,15.4-7.793,29.728-21.945,40.341C292.591,354.439,274.814,360,256,360s-36.591-5.561-50.055-15.659C191.793,333.728,184,319.4,184,304Zm72,144a8,8,0,1,1,8-8A8,8,0,0,1,256,448ZM440,248a8,8,0,1,1-8,8A8,8,0,0,1,440,248Zm-1.391,32.12a8,8,0,0,1,6.5,9.262A192.259,192.259,0,0,1,289.382,445.107a8,8,0,1,1-2.764-15.76A176.212,176.212,0,0,0,429.347,286.618,8,8,0,0,1,438.609,280.12Z"/></svg>
