<svg height="512" viewBox="0 0 42 56" width="512" xmlns="http://www.w3.org/2000/svg"><g id="037---Ukraine-Man"><path id="Shape" d="m8.013 20c.028.758.117 1.4.117 1.4.28189277 1.0552793.88212812 1.9980574 1.719 2.7-.03605753-.7641746-.13100582-1.5244296-.284-2.274-.1-.532-.2-1.119-.293-1.826z"/><path id="Shape" d="m15.081 56h3.838l-1.919-2.399z"/><path id="Shape" d="m9.048 39h-.048c-4.96827817.0055111-8.99448887 4.0317218-9 9v7c0 .5522847.44771525 1 1 1h4v-6c0-.5522847.44771525-1 1-1s1 .4477153 1 1v6h5v-11.1c-1.7371198-1.4898688-2.80113843-3.6164644-2.952-5.9z"/><path id="Shape" d="m19.049 47.838c-1.7592239-.2337413-3.4662752-.7632011-5.049-1.566v.377l3 3.75z"/><path id="Shape" d="m14 54.149 1.72-2.149-1.72-2.149z"/><path id="Shape" d="m31.722 1.608c-.1894132-.93375937-1.0092259-1.60565486-1.962-1.608h-17.52c-.9527741.00234514-1.7725868.67424063-1.962 1.608l-2.278 11.392h22c.5522847 0 1 .4477153 1 1s-.4477153 1-1 1h-22.4l-.6 3h28z"/><path id="Shape" d="m30.705 20h-19.413c.079.551.164 1.035.242 1.473.2036411.972868.3128149 1.9631348.326 2.957 0 .528-.022 1.028-.043 1.547-.106 2.3-.189 4.124 2.077 6.3 1.0407229 1.0352019 1.949603 2.1949814 2.706 3.453 1.037 1.615 1.511 2.27 2.84 2.27h3.12c1.329 0 1.8-.655 2.841-2.27.7546673-1.2569834 1.6615156-2.4160699 2.7-3.451 2.266-2.178 2.183-4 2.077-6.3-.022-.523-.043-1.02-.043-1.547.0763363-1.4897401.2668959-2.9714245.57-4.432z"/><path id="Shape" d="m33.99 20h-1.266c-.093.731-.2 1.335-.3 1.88-.1477756.7313196-.2400386 1.4727667-.276 2.218.8450515-.7095934 1.447997-1.6648688 1.725-2.733 0 0 .086-.62.117-1.365z"/><path id="Shape" d="m33 39h-.048c-.1510841 2.2834752-1.215062 4.4099893-2.952 5.9v11.1h5v-6c0-.5522847.4477153-1 1-1s1 .4477153 1 1v6h4c.5522847 0 1-.4477153 1-1v-7c-.0055111-4.9682782-4.0317218-8.9944889-9-9z"/><path id="Shape" d="m20 54.149v-4.298l-1.72 2.149z"/><path id="Shape" d="m28 54.149v-4.298l-1.72 2.149z"/><path id="Shape" d="m28.931 39c-.3 2.142-1.679 4.411-6.035 4.9-.5090925.0511593-.8974475.4783498-.9.99v1.044c2.2926631-.1716572 4.4971317-.9559825 6.383-2.271 1.4694658-1.1268435 2.3988687-2.8184149 2.562-4.663z"/><path id="Shape" d="m23.081 56h3.838l-1.919-2.399z"/><path id="Shape" d="m25 50.4 3-3.75v-.376c-1.5825193.8031142-3.2896829 1.3322706-5.049 1.565z"/><path id="Shape" d="m22 49.851v4.298l1.72-2.149z"/><path id="Shape" d="m19.1 43.9c-4.356-.49-5.738-2.759-6.035-4.9h-2.01c.1607427 1.8431002 1.0876969 3.5341113 2.555 4.661 1.8865586 1.3195177 4.0940774 2.1057951 6.39 2.276v-1.046c-.0020421-.5120334-.3905287-.9398003-.9-.991z"/><path id="Shape" d="m27 38v-1.06c-1.025 1.591-2.031 3.06-4.44 3.06h-3.12c-2.409 0-3.415-1.469-4.44-3.06v1.06c0 1.6.492 3.482 4.326 3.914.6240123.0717875 1.2096422.3380147 1.674.761.4643578-.4229853 1.0499877-.6892125 1.674-.761 3.834-.432 4.326-2.314 4.326-3.914z"/></g></svg>